<svg width="16" height="18" viewBox="0 0 16 18" fill="none" xmlns="http://www.w3.org/2000/svg">
<path d="M8 8.99916C10.3672 8.99916 12.2857 7.08063 12.2857 4.71345C12.2857 2.34626 10.3672 0.427734 8 0.427734C5.63281 0.427734 3.71429 2.34626 3.71429 4.71345C3.71429 7.08063 5.63281 8.99916 8 8.99916ZM11 10.0706H10.4408C9.69754 10.4121 8.87054 10.6063 8 10.6063C7.12946 10.6063 6.3058 10.4121 5.55915 10.0706H5C2.51562 10.0706 0.5 12.0862 0.5 14.5706V15.9634C0.5 16.8507 1.21987 17.5706 2.10714 17.5706H13.8929C14.7801 17.5706 15.5 16.8507 15.5 15.9634V14.5706C15.5 12.0862 13.4844 10.0706 11 10.0706Z" fill="#C72931"/>
</svg>
