<svg width="16" height="18" viewBox="0 0 16 18" fill="none" xmlns="http://www.w3.org/2000/svg">
<path d="M3.74642 8.40947H4.04029V4.95787C4.04099 4.9493 4.043 4.94101 4.043 4.93216V4.4225C4.043 3.5139 4.32345 2.77743 4.87662 2.23339C6.02079 1.10761 7.9752 1.12294 8.00819 1.12756C8.03142 1.12613 9.96949 1.09799 11.1188 2.22289C11.6757 2.76799 11.9583 3.50787 11.9583 4.4225V4.9614C11.9583 4.96711 11.9596 4.9714 11.9596 4.97669V8.40936H12.2535C12.9767 8.40936 13.5629 7.82317 13.5629 7.10011V5.84176C13.5629 5.26004 13.1831 4.76759 12.6579 4.59716V4.42263C12.6579 3.31284 12.3046 2.4046 11.6083 1.72299C10.251 0.394514 8.08284 0.428914 8.00702 0.427886C7.9159 0.427014 5.74567 0.400314 4.38897 1.73127C3.69516 2.4122 3.34317 3.31769 3.34317 4.42249V4.59633C2.81734 4.76671 2.43714 5.25954 2.43714 5.84159V7.09994C2.43717 7.8232 3.02353 8.40947 3.74642 8.40947ZM15.4066 16.1932C15.2454 13.1293 12.4917 11.8619 12.4917 11.8619C11.8338 11.5543 10.641 10.9521 9.85896 10.554C10.8609 9.45781 11.1569 7.67056 11.2029 7.41624C11.412 6.26554 11.3068 4.84129 11.3068 4.84129C11.1156 2.07167 8.31932 2.02817 8.02649 2.03107C8.01033 2.03107 7.99982 2.03124 7.99982 2.03124C7.99982 2.03124 7.99082 2.03107 7.97763 2.03124C7.71214 2.02839 4.88508 2.05581 4.69284 4.84129C4.69284 4.84129 4.58759 6.26537 4.79671 7.41624C4.81028 7.49039 4.84572 7.69686 4.91295 7.97611C5.43965 8.66754 6.25279 9.00661 6.92015 9.17256C7.00407 9.09099 7.11842 9.04027 7.24514 9.04027H8.46153C8.71895 9.04027 8.92736 9.24884 8.92736 9.50627C8.92736 9.76386 8.71895 9.9726 8.46153 9.9726H7.24514C7.05307 9.9726 6.88887 9.85674 6.81716 9.69144C6.31937 9.57044 5.74332 9.35957 5.22917 8.99694C5.4343 9.52946 5.72662 10.1007 6.14102 10.5541C5.35897 10.9522 4.16667 11.5542 3.50827 11.8618C3.50827 11.8618 0.754984 13.1293 0.59333 16.1931C0.59333 16.1931 0.545515 16.7026 1.51104 16.8956C1.51104 16.8956 4.46894 17.5706 8.00016 17.5706C11.5317 17.5706 14.4896 16.8956 14.4896 16.8956C15.455 16.7026 15.4066 16.1932 15.4066 16.1932Z" fill="#C72931"/>
</svg>
