<svg width="31" height="29" viewBox="0 0 31 29" fill="none" xmlns="http://www.w3.org/2000/svg">
<path d="M9.56988 12.4592C11.6202 16.0935 14.6714 19.0622 18.3605 21.012C18.4449 20.943 18.5676 20.8356 18.675 20.7282C19.6569 19.7847 20.6464 18.8566 21.6052 17.8978C21.764 17.7245 21.9684 17.5995 22.195 17.5371C22.4215 17.4747 22.6611 17.4774 22.8862 17.5449C24.5584 17.9054 26.246 18.2276 27.9258 18.5498C28.1784 18.5984 28.4363 18.6139 28.6929 18.5958C29.0017 18.5956 29.3073 18.6576 29.5916 18.778C29.876 18.8984 30.1331 19.0748 30.3478 19.2967C30.5626 19.5186 30.7304 19.7814 30.8415 20.0695C30.9525 20.3576 31.0044 20.6651 30.9941 20.9737C30.9097 22.7533 30.8944 24.5406 30.9328 26.3432C30.9328 26.6429 30.873 26.9396 30.7567 27.2158C30.6404 27.4921 30.47 27.7423 30.2556 27.9517C30.0412 28.1611 29.787 28.3255 29.5081 28.4353C29.2292 28.545 28.9312 28.5978 28.6316 28.5907C24.9457 28.6366 21.2763 28.0928 17.7622 26.9798C14.8467 26.0877 12.142 24.6145 9.81117 22.6488C7.48039 20.6832 5.57178 18.266 4.20041 15.5429C2.70801 12.5865 1.73747 9.39463 1.33159 6.10793C1.1705 4.85761 1.07078 3.59962 0.978735 2.3493C0.93149 1.94417 1.00537 1.53413 1.19105 1.17097C1.37672 0.807806 1.66586 0.50782 2.02194 0.308902C2.34548 0.127194 2.70945 0.0296066 3.0805 0.0250875C5.25897 0.0250875 7.46812 0.0250875 9.60824 0.0250875C9.99468 0.0104467 10.3786 0.0934335 10.7245 0.266382C11.0704 0.43933 11.3672 0.696662 11.5873 1.0146C11.7909 1.26879 11.9114 1.57942 11.9325 1.9044C12.0014 3.73196 12.3321 5.54018 12.9143 7.27387L13.2135 8.30941C13.2604 8.47253 13.26 8.64559 13.2125 8.80851C13.165 8.97144 13.0722 9.11755 12.945 9.22989C11.9325 10.1887 10.9429 11.1629 9.94575 12.1294C9.83069 12.2982 9.69262 12.3595 9.56988 12.4592ZM6.40957 1.39047H3.3413C2.57423 1.39047 2.35178 1.62059 2.40548 2.3493C2.49752 3.53826 2.57423 4.73488 2.72764 5.91616C3.13981 9.44787 4.25339 12.8617 6.00302 15.9571C8.00485 19.4462 10.9794 22.2769 14.5635 24.1033C18.9742 26.4045 23.7683 27.1716 28.6469 27.1716C28.7672 27.1915 28.8906 27.1825 29.0067 27.1452C29.1228 27.1079 29.2284 27.0435 29.3147 26.9572C29.4009 26.871 29.4654 26.7654 29.5026 26.6493C29.5399 26.5332 29.549 26.4098 29.529 26.2895C29.529 24.4869 29.529 22.6919 29.5674 20.92C29.5674 20.314 29.2989 20.0455 28.6776 20.0149C28.3005 20.0189 27.9237 19.9958 27.55 19.9458C26.0926 19.6697 24.6275 19.4012 23.1854 19.0637C23.0002 18.9992 22.7998 18.9925 22.6107 19.0445C22.4216 19.0966 22.2529 19.2049 22.1268 19.3552C21.145 20.36 20.1248 21.3265 19.1122 22.3007C18.652 22.7533 18.4142 22.7763 17.8543 22.4311C17.4094 22.1626 16.9491 21.9095 16.5272 21.6104C15.4303 20.8433 14.3104 20.0762 13.2825 19.2325C11.2755 17.4476 9.57095 15.3493 8.23519 13.0192C7.89001 12.4516 7.91302 12.2521 8.37326 11.7766C9.37812 10.7947 10.3753 9.79752 11.3956 8.83102C11.5467 8.71631 11.6553 8.55437 11.7039 8.37093C11.7526 8.18748 11.7385 7.99304 11.664 7.81849C11.0163 5.99599 10.6364 4.08913 10.5364 2.15753C10.5236 2.04843 10.4876 1.94335 10.4307 1.84939C10.3737 1.75543 10.2973 1.67478 10.2066 1.61292C9.95176 1.47558 9.66754 1.40189 9.37812 1.39814C8.40394 1.37513 7.40675 1.39047 6.40957 1.39047Z" fill="#C72931"/>
</svg>
