<svg width="30" height="30" viewBox="0 0 30 30" fill="none" xmlns="http://www.w3.org/2000/svg">
<mask id="mask0_284_25916" style="mask-type:luminance" maskUnits="userSpaceOnUse" x="0" y="0" width="30" height="30">
<path d="M29.5166 0.5H0.484375V29.5398H29.5166V0.5Z" fill="white"/>
</mask>
<g mask="url(#mask0_284_25916)">
<path d="M15.0005 0.500002C17.8733 0.498504 20.6821 1.34903 23.0715 2.944C25.4609 4.53898 27.3236 6.80675 28.4241 9.46048C29.5245 12.1142 29.8131 15.0347 29.2536 17.8525C28.6941 20.6704 27.3114 23.2589 25.2805 25.2908C23.2497 27.3228 20.6618 28.7068 17.8443 29.2678C15.0267 29.8288 12.1062 29.5416 9.45185 28.4426C6.79755 27.3435 4.52881 25.482 2.93259 23.0934C1.33637 20.7048 0.484375 17.8965 0.484375 15.0237C0.492371 11.1755 2.02407 7.48717 4.74442 4.7654C7.46478 2.04363 11.1524 0.510005 15.0005 0.500002ZM28.093 15.0237C28.0915 12.4288 27.3202 9.89263 25.877 7.73618C24.4336 5.57974 22.3829 3.89993 19.9845 2.90932C17.5861 1.91872 14.9478 1.66185 12.4034 2.17122C9.8589 2.68058 7.52274 3.93331 5.69052 5.77084C3.85828 7.60836 2.61232 9.94812 2.11031 12.494C1.60829 15.0399 1.87279 17.6775 2.87032 20.0731C3.86785 22.4685 5.55358 24.5143 7.71419 25.9515C9.87479 27.3886 12.4131 28.1525 15.0081 28.1465C16.7291 28.1445 18.4328 27.8035 20.0218 27.1428C21.611 26.4821 23.0543 25.5149 24.2695 24.2962C25.4846 23.0775 26.4477 21.6314 27.1039 20.0404C27.7599 18.4494 28.096 16.7447 28.093 15.0237Z" fill="#C72931"/>
<path d="M14.3086 11.2813V7.7299C14.3086 7.07111 14.5357 6.73035 14.9673 6.72278C15.3989 6.71521 15.6791 7.04839 15.6791 7.71476C15.6791 9.91073 15.6791 12.1042 15.6791 14.2951C15.6705 14.4359 15.6932 14.5768 15.7456 14.7077C15.7979 14.8386 15.8788 14.9563 15.982 15.0523C17.5722 16.6274 19.1549 18.2176 20.7374 19.8001C20.8513 19.9062 20.9576 20.02 21.0555 20.1409C21.1622 20.2668 21.2208 20.4265 21.2208 20.5915C21.2208 20.7565 21.1622 20.9161 21.0555 21.0421C20.9507 21.159 20.8071 21.2341 20.6513 21.2536C20.4954 21.2731 20.3377 21.2356 20.2074 21.148C20.091 21.0699 19.9843 20.9785 19.8894 20.8754C18.1377 19.1237 16.3859 17.377 14.6341 15.6354C14.5371 15.5483 14.4608 15.4404 14.411 15.3198C14.3612 15.1992 14.3391 15.069 14.3464 14.9387C14.3237 13.712 14.3086 12.4929 14.3086 11.2813Z" fill="#C72931"/>
<path d="M7.16504 6.52382C7.25416 6.5208 7.34298 6.53549 7.42637 6.56704C7.50976 6.5986 7.58607 6.6464 7.65085 6.70767C7.71564 6.76892 7.76762 6.84243 7.80378 6.92394C7.83994 7.00544 7.85956 7.0933 7.86152 7.18245C7.86754 7.3195 7.83249 7.45524 7.76089 7.57226C7.68929 7.68928 7.58436 7.78225 7.45959 7.83927C7.33481 7.89628 7.19585 7.91475 7.06051 7.89229C6.92517 7.86984 6.79962 7.80748 6.69995 7.71322C6.60027 7.61896 6.531 7.49708 6.50103 7.3632C6.47105 7.22934 6.48172 7.08956 6.53168 6.9618C6.58165 6.83402 6.66863 6.72408 6.78147 6.64606C6.89431 6.56803 7.02786 6.52547 7.16504 6.52382Z" fill="#C72931"/>
<path d="M23.5031 7.19695C23.5012 7.37777 23.429 7.55074 23.3018 7.6793C23.1747 7.80786 23.0025 7.88193 22.8217 7.88586C22.6454 7.87074 22.4798 7.79431 22.354 7.66984C22.2281 7.54536 22.1499 7.38072 22.1328 7.20452C22.1385 7.02362 22.2129 6.85168 22.341 6.7237C22.4689 6.59572 22.6409 6.52132 22.8217 6.51562C23.0013 6.51949 23.1724 6.59251 23.2992 6.71946C23.4262 6.8464 23.4993 7.01747 23.5031 7.19695Z" fill="#C72931"/>
<path d="M6.49219 22.8375C6.50975 22.659 6.59017 22.4924 6.71912 22.3677C6.84807 22.2429 7.01717 22.168 7.19623 22.1562C7.37209 22.1772 7.53505 22.259 7.65677 22.3876C7.77848 22.5163 7.85125 22.6836 7.86241 22.8603C7.8446 23.0295 7.76473 23.1863 7.63823 23.3002C7.51171 23.414 7.34753 23.4771 7.1773 23.4771C7.00707 23.4771 6.84289 23.414 6.71637 23.3002C6.58987 23.1863 6.51 23.0295 6.49219 22.8603V22.8375Z" fill="#C72931"/>
<path d="M26.0509 14.3514C26.141 14.3484 26.2308 14.3633 26.3151 14.3953C26.3994 14.4272 26.4765 14.4755 26.5421 14.5375C26.6076 14.5995 26.6601 14.6738 26.6966 14.7562C26.7332 14.8386 26.753 14.9275 26.755 15.0176C26.7531 15.1972 26.682 15.369 26.5565 15.4974C26.4309 15.6258 26.2606 15.7007 26.0812 15.7066C25.9862 15.7166 25.8902 15.7066 25.7993 15.6771C25.7084 15.6476 25.6247 15.5993 25.5538 15.5355C25.4828 15.4716 25.426 15.3935 25.3871 15.3062C25.3483 15.2189 25.3281 15.1245 25.3281 15.029C25.3281 14.9334 25.3483 14.839 25.3871 14.7518C25.426 14.6645 25.4828 14.5864 25.5538 14.5225C25.6247 14.4586 25.7084 14.4104 25.7993 14.3809C25.8902 14.3514 25.9862 14.3414 26.0812 14.3514H26.0509Z" fill="#C72931"/>
<path d="M3.91619 15.7063C3.78212 15.7033 3.65192 15.6608 3.54187 15.5841C3.43184 15.5075 3.34687 15.4001 3.29762 15.2753C3.24836 15.1506 3.23702 15.0141 3.26499 14.883C3.29296 14.7518 3.35902 14.6319 3.45487 14.5381C3.55074 14.4443 3.67214 14.3808 3.80388 14.3558C3.93562 14.3307 4.07182 14.345 4.19544 14.397C4.31906 14.4491 4.42458 14.5363 4.49881 14.648C4.57302 14.7597 4.61262 14.8908 4.61266 15.025C4.6087 15.207 4.53358 15.3803 4.4034 15.5077C4.27321 15.635 4.09831 15.7063 3.91619 15.7063Z" fill="#C72931"/>
<path d="M23.5032 22.8608C23.4974 23.0402 23.4225 23.2106 23.2941 23.3361C23.1658 23.4616 22.9939 23.5327 22.8144 23.5346C22.6342 23.5268 22.4639 23.4503 22.3386 23.3207C22.2132 23.1911 22.1424 23.0184 22.1406 22.8381C22.1484 22.6586 22.2252 22.4892 22.355 22.365C22.4848 22.241 22.6575 22.1718 22.837 22.1719C23.0164 22.1758 23.187 22.2505 23.3117 22.3795C23.4364 22.5085 23.5053 22.6814 23.5032 22.8608Z" fill="#C72931"/>
<path d="M15.0074 26.7765C14.8381 26.7587 14.6814 26.6789 14.5675 26.5524C14.4536 26.4258 14.3906 26.2617 14.3906 26.0915C14.3906 25.9212 14.4536 25.757 14.5675 25.6305C14.6814 25.504 14.8381 25.4241 15.0074 25.4063C15.0962 25.4053 15.1843 25.4221 15.2664 25.4555C15.3486 25.489 15.4233 25.5386 15.4861 25.6014C15.5488 25.6642 15.5985 25.7388 15.6319 25.8211C15.6654 25.9032 15.6822 25.9913 15.6812 26.08C15.6832 26.2615 15.6136 26.4364 15.4875 26.5668C15.3613 26.6972 15.1888 26.7725 15.0074 26.7765Z" fill="#C72931"/>
<path d="M15.6716 3.94026C15.6744 4.07281 15.6381 4.20324 15.5672 4.31524C15.4963 4.42725 15.3938 4.51582 15.2727 4.56989C15.1517 4.62396 15.0174 4.64112 14.8867 4.61922C14.7559 4.59731 14.6345 4.53731 14.5377 4.44675C14.4408 4.35617 14.3729 4.23905 14.3423 4.11005C14.3118 3.98104 14.32 3.84588 14.3658 3.7215C14.4117 3.59713 14.4933 3.48904 14.6003 3.4108C14.7074 3.33256 14.8351 3.28763 14.9675 3.28164C15.057 3.2786 15.1462 3.29325 15.23 3.32471C15.3138 3.35618 15.3907 3.40386 15.4561 3.46502C15.5214 3.52619 15.5742 3.59965 15.6111 3.68119C15.6481 3.76274 15.6686 3.85077 15.6716 3.94026Z" fill="#C72931"/>
</g>
</svg>
