<svg width="30" height="31" viewBox="0 0 30 31" fill="none" xmlns="http://www.w3.org/2000/svg">
<mask id="mask0_284_25931" style="mask-type:luminance" maskUnits="userSpaceOnUse" x="0" y="0" width="30" height="31">
<path d="M30 0.5H0V30.492H30V0.5Z" fill="white"/>
</mask>
<g mask="url(#mask0_284_25931)">
<path d="M14.9557 30.4936H1.54374C1.23188 30.5292 0.917331 30.4558 0.653495 30.2857C0.38966 30.1157 0.192822 29.8596 0.0964126 29.5609C0.0354388 29.4047 0.00539904 29.2381 0.00796393 29.0704C0.00796393 23.474 0.00796393 17.875 0.00796393 12.2733C0.016591 11.9693 0.101342 11.6724 0.254464 11.4097C0.407586 11.147 0.624181 10.927 0.884402 10.7697C2.05835 9.89323 3.2323 9.00875 4.41429 8.14839C4.5359 8.07082 4.63441 7.96196 4.69948 7.83322C4.76456 7.70448 4.7938 7.56061 4.78415 7.41668C4.78415 5.41454 4.78415 3.39631 4.78415 1.41025C4.76792 1.25791 4.76792 1.10427 4.78415 0.951928C4.79837 0.822443 4.86271 0.703666 4.96339 0.621015C5.06408 0.538364 5.19312 0.498404 5.32289 0.509687H24.3392C25.0629 0.509687 25.1996 0.654421 25.1996 1.37809C25.1996 3.39363 25.1996 5.41186 25.1996 7.43276C25.1873 7.56901 25.2122 7.70604 25.2717 7.82924C25.3312 7.95244 25.423 8.05718 25.5373 8.13231C26.7273 8.99267 27.8852 9.89323 29.0672 10.7536C29.3612 10.9465 29.6003 11.2124 29.7609 11.5252C29.9216 11.8381 29.9984 12.1872 29.9838 12.5386C29.9838 17.9661 29.9838 23.3936 29.9838 28.8292C29.9948 29.1024 29.9539 29.3753 29.8632 29.6332C29.7659 29.8809 29.5932 30.0918 29.3696 30.236C29.146 30.3803 28.8827 30.4507 28.6169 30.4373H14.9477L14.9557 30.4936ZM23.9854 1.69168H6.02243C6.01543 1.82292 6.01543 1.95443 6.02243 2.08567V17.1058C6.01814 17.2159 6.03827 17.3257 6.08136 17.4272C6.12446 17.5286 6.18945 17.6193 6.27169 17.6927C7.31699 18.6818 8.34621 19.6788 9.37542 20.6839C9.44608 20.7599 9.53209 20.82 9.62775 20.8602C9.7234 20.9004 9.82651 20.9198 9.93023 20.9171H20.1259C20.2308 20.9199 20.3352 20.9006 20.4321 20.8604C20.5291 20.8202 20.6165 20.7601 20.6887 20.6839C21.6965 19.7029 22.7097 18.7246 23.7281 17.749C23.8345 17.6601 23.9188 17.5477 23.9746 17.4208C24.0304 17.2939 24.0561 17.1558 24.0498 17.0173C24.0498 12.075 24.0498 7.12721 24.0498 2.17412C24.0096 2.02135 23.9935 1.86857 23.9854 1.69168ZM27.8772 29.3116C27.8274 29.2442 27.7737 29.1797 27.7163 29.1186C25.3443 26.8431 22.9723 24.5756 20.6083 22.292C20.5353 22.2274 20.4499 22.1784 20.3572 22.148C20.2646 22.1175 20.1667 22.1064 20.0696 22.1152H9.91415C9.8104 22.1103 9.70677 22.127 9.60986 22.1644C9.51295 22.2018 9.4249 22.259 9.3513 22.3323C7.04361 24.5676 4.71983 26.7949 2.4041 29.0221C2.31404 29.1124 2.23073 29.2092 2.15484 29.3116H27.8772ZM1.19799 14.5408V28.4754L8.4829 21.5201L1.19799 14.5408ZM28.8018 28.4754V14.5408L21.5169 21.5201L28.8018 28.4754ZM25.2478 16.2454L25.6177 15.9238L28.5204 13.1497C28.6366 13.0718 28.7305 12.9649 28.7927 12.8396C28.8549 12.7143 28.8834 12.5749 28.8753 12.4353C28.8672 12.2956 28.8227 12.1604 28.7464 12.0432C28.6701 11.926 28.5645 11.8307 28.44 11.7667C27.451 11.0189 26.454 10.2872 25.4569 9.53944L25.2478 9.41883V16.2454ZM4.752 9.37862C3.59413 10.2631 2.50863 11.0672 1.43921 11.8713C1.35366 11.9467 1.28513 12.0395 1.2382 12.1435C1.19126 12.2475 1.16699 12.3602 1.16699 12.4743C1.16699 12.5884 1.19126 12.7012 1.2382 12.8051C1.28513 12.9091 1.35366 13.0019 1.43921 13.0774L4.52686 16.0283C4.6062 16.0973 4.68942 16.1618 4.77612 16.2213L4.752 9.37862Z" fill="#C72931"/>
<path d="M9.59375 6.45865V5.30078H20.3924V6.45865H9.59375Z" fill="#C72931"/>
<path d="M20.4041 12.5195V13.6774H9.60547V12.5195H20.4041Z" fill="#C72931"/>
<path d="M9.60156 10.0439V8.91016H19.1942V10.0439H9.60156Z" fill="#C72931"/>
</g>
</svg>
