<svg width="31" height="30" viewBox="0 0 31 30" fill="none" xmlns="http://www.w3.org/2000/svg">
<path d="M14.9003 29.9866C12.7751 29.9866 10.6499 30.0201 8.52467 29.9811C3.88376 29.8861 0.140917 26.1736 0.073981 21.5231C0.0126229 17.2188 0.0182009 12.9089 0.073981 8.60456C0.129761 3.8871 3.86145 0.141046 8.6195 0.057304C12.8699 -0.0152722 17.1204 -0.020855 21.3653 0.0517212C26.2237 0.135463 29.9108 3.84244 29.9833 8.69388C30.0446 12.8921 30.0446 17.096 29.9889 21.2942C29.9219 26.3132 26.1679 29.9531 21.1198 29.9811C19.0448 29.9922 16.9698 29.9866 14.9003 29.9866Z" fill="#C72931"/>
<path opacity="0.6" d="M23.4461 8.95057C22.3974 8.95057 21.3934 8.53186 20.6515 7.78935C19.9096 7.04684 19.4968 6.03635 19.4968 4.98679C19.4968 4.91421 19.5024 4.83047 19.508 4.73556C19.508 4.71881 19.508 4.70206 19.508 4.6909C19.5136 4.57924 19.5192 4.45084 19.5192 4.32802C19.5136 4.09354 19.4745 3.7809 19.2626 3.56876C19.0562 3.36219 18.7382 3.30078 18.4928 3.28404C18.2976 3.26729 18.0856 3.26729 17.9238 3.27287C17.8736 3.27287 17.829 3.27287 17.79 3.27287C17.7509 3.27287 17.7063 3.27287 17.6561 3.27287C17.4943 3.27287 17.2935 3.26729 17.1095 3.28404C16.8696 3.30637 16.574 3.36778 16.3676 3.56876C16.1556 3.7809 16.1166 4.09354 16.111 4.32802C16.1054 4.45642 16.1166 4.57924 16.1221 4.6909C16.1221 4.70765 16.1221 4.7244 16.1221 4.73556C16.1277 4.83047 16.1333 4.91421 16.1333 4.98679V19.1057C16.1333 19.8873 15.899 20.6577 15.4695 21.3053C15.0344 21.9585 14.4208 22.4665 13.6957 22.7624C12.9761 23.0639 12.1785 23.142 11.4143 22.9857C10.6501 22.835 9.94728 22.4553 9.38948 21.9026C8.83726 21.3499 8.46353 20.6409 8.30734 19.8761C8.15674 19.1057 8.23483 18.3129 8.53047 17.5871C8.83168 16.8614 9.3337 16.2417 9.98633 15.8062C10.6334 15.3708 11.3976 15.1363 12.1785 15.1363C12.2398 15.1363 12.3124 15.1363 12.3905 15.1419C12.4183 15.1419 12.4518 15.1419 12.4853 15.1475C12.6024 15.153 12.7307 15.153 12.8646 15.1475C13.1044 15.1363 13.4224 15.0916 13.6343 14.8795C13.8463 14.6673 13.8909 14.3547 13.8965 14.1202C13.9021 13.9918 13.8965 13.8634 13.8965 13.7518C13.8965 13.7239 13.8965 13.6959 13.8909 13.6736C13.8854 13.5899 13.8854 13.5173 13.8854 13.4503C13.8854 13.4335 13.8854 13.4112 13.8854 13.3945C13.8854 13.2214 13.8854 12.9925 13.8575 12.7804C13.824 12.5459 13.7515 12.2667 13.5563 12.0713C13.3554 11.8704 13.071 11.809 12.8367 11.7866C12.6638 11.7699 12.4741 11.7755 12.3235 11.7755C12.2733 11.7755 12.2231 11.7755 12.1785 11.7755C10.7338 11.7755 9.32254 12.2053 8.11769 13.0093C6.91842 13.8132 5.98131 14.9576 5.42351 16.2975C4.87129 17.6374 4.72626 19.1112 5.00516 20.5349C5.28964 21.9585 5.98131 23.2648 7.00767 24.2865C8.02844 25.3137 9.3337 26.0116 10.7505 26.2907C12.1673 26.5754 13.6399 26.4303 14.9731 25.872C16.3062 25.3193 17.4497 24.3758 18.2529 23.1699C19.0562 21.9641 19.4857 20.546 19.4857 19.1001V11.1614C20.6571 11.9206 22.0293 12.3282 23.4349 12.3226C23.5074 12.3226 23.5911 12.3282 23.6915 12.3337C23.7027 12.3337 23.7138 12.3337 23.725 12.3337C23.8365 12.3393 23.9593 12.3449 24.082 12.3449C24.3107 12.3393 24.623 12.3058 24.835 12.0937C25.0358 11.8927 25.1027 11.5912 25.1362 11.3456C25.1641 11.1167 25.1641 10.8766 25.1641 10.698C25.1641 10.6756 25.1641 10.6589 25.1641 10.6422C25.1641 10.6254 25.1641 10.6031 25.1641 10.5863C25.1641 10.4133 25.1641 10.1844 25.1362 9.97222C25.1027 9.73774 25.0302 9.4586 24.835 9.25762C24.6342 9.05664 24.3386 8.99523 24.1043 8.9729C23.9202 8.95615 23.725 8.95615 23.5632 8.96173C23.5297 8.95057 23.4851 8.95057 23.4461 8.95057Z" fill="#C72931"/>
<path d="M22.5647 9.72353C21.6276 9.72353 20.7295 9.34949 20.0657 8.68513C19.4019 8.02078 19.0282 7.11637 19.0282 6.17846C19.0282 6.11147 19.0338 6.03889 19.0394 5.95515C19.0394 5.94399 19.0394 5.92724 19.0394 5.91607C19.0449 5.81558 19.0505 5.70392 19.0505 5.58669C19.0449 5.37454 19.0115 5.0954 18.8218 4.90559C18.6377 4.72135 18.3533 4.66553 18.1357 4.64878C17.9572 4.63203 17.7731 4.63761 17.6225 4.63761C17.5779 4.63761 17.5389 4.63761 17.5054 4.63761C17.4719 4.63761 17.4329 4.63761 17.3883 4.63761C17.2432 4.63761 17.0647 4.63203 16.8974 4.64878C16.6854 4.67111 16.4177 4.72135 16.2336 4.90559C16.044 5.0954 16.0105 5.37454 16.0049 5.58669C16.0049 5.69834 16.0105 5.81558 16.0161 5.91607C16.0161 5.93282 16.0161 5.94399 16.0161 5.95515C16.0216 6.04448 16.0272 6.11705 16.0272 6.17846V18.8179C16.0272 19.5213 15.8208 20.208 15.4304 20.7886C15.0399 21.3692 14.4877 21.827 13.8462 22.095C13.1992 22.363 12.4908 22.4355 11.8047 22.296C11.1186 22.1564 10.4883 21.8214 9.99182 21.3246C9.49537 20.8277 9.16069 20.1968 9.02124 19.5102C8.88737 18.8235 8.9543 18.1089 9.22205 17.4613C9.48979 16.8137 9.94161 16.261 10.5217 15.8702C11.1018 15.4794 11.7879 15.2728 12.4852 15.2728C12.541 15.2728 12.6023 15.2728 12.6748 15.2784C12.7027 15.2784 12.7306 15.2784 12.7585 15.284C12.8645 15.2896 12.9816 15.2896 13.0932 15.284C13.3107 15.2728 13.5952 15.2337 13.7793 15.0439C13.9689 14.8541 14.008 14.575 14.0136 14.3628C14.0191 14.2512 14.0136 14.1339 14.0136 14.0334C14.0136 14.0111 14.0136 13.9832 14.008 13.9609C14.0024 13.8827 14.0024 13.8213 14.0024 13.7599C14.0024 13.7431 14.0024 13.7264 14.0024 13.7096C14.0024 13.5533 14.0024 13.3523 13.9801 13.1569C13.9522 12.9448 13.8853 12.6992 13.7123 12.5205C13.5339 12.3363 13.2773 12.286 13.0709 12.2637C12.9147 12.247 12.7474 12.2525 12.6079 12.2525C12.5633 12.2525 12.5187 12.2525 12.4796 12.2525C11.1855 12.2525 9.9193 12.6378 8.84274 13.3579C7.76619 14.0781 6.92949 15.1053 6.43304 16.3056C5.9366 17.5059 5.80831 18.8235 6.05932 20.0964C6.31033 21.3692 6.93506 22.536 7.84986 23.4572C8.76465 24.3728 9.93046 24.998 11.2022 25.2549C12.474 25.5061 13.7849 25.3777 14.9841 24.8808C16.1778 24.3839 17.2042 23.5409 17.9182 22.4635C18.6377 21.386 19.0226 20.1131 19.0226 18.8179V11.6998C20.0713 12.3809 21.2984 12.7438 22.5591 12.7382C22.626 12.7382 22.6985 12.7438 22.7878 12.7494C22.7989 12.7494 22.8101 12.7494 22.8157 12.7494C22.9161 12.755 23.0276 12.7606 23.1336 12.7606C23.34 12.755 23.6133 12.7271 23.8086 12.5317C23.9871 12.353 24.0484 12.0795 24.0763 11.8617C24.1042 11.6552 24.0986 11.4374 24.0986 11.2811C24.0986 11.2644 24.0986 11.2476 24.0986 11.2309C24.0986 11.2141 24.0986 11.1974 24.0986 11.1806C24.0986 11.0243 24.0986 10.8233 24.0763 10.6279C24.0484 10.4158 23.9815 10.1646 23.8086 9.99151C23.6245 9.80727 23.3679 9.75703 23.1559 9.7347C22.9942 9.71795 22.8157 9.72353 22.6706 9.72353C22.6427 9.72353 22.5981 9.72353 22.5647 9.72353Z" fill="white"/>
<path d="M23.8086 9.99151C23.9815 10.1646 24.0484 10.4158 24.0763 10.6279C24.0986 10.8233 24.0986 11.0243 24.0986 11.1806C24.0986 11.1974 24.0986 11.2141 24.0986 11.2309C24.0986 11.2476 24.0986 11.2644 24.0986 11.2811C24.0986 11.4374 24.1042 11.6552 24.0763 11.8617C24.0484 12.0795 23.9871 12.353 23.8086 12.5317C23.6133 12.7271 23.34 12.755 23.1336 12.7606C23.0276 12.7606 22.9161 12.755 22.8157 12.7494C22.8101 12.7494 22.7989 12.7494 22.7878 12.7494C22.6985 12.7438 22.626 12.7382 22.5591 12.7382C21.2984 12.7438 20.0713 12.3809 19.0226 11.6998V18.8179C19.0226 20.1131 18.6377 21.386 17.9182 22.4635C17.2042 23.5409 16.1778 24.3839 14.9841 24.8808C13.7849 25.3777 12.474 25.5061 11.2022 25.2549C9.93046 24.998 8.76465 24.3728 7.84986 23.4572C6.93506 22.536 6.31033 21.3692 6.05932 20.0964C5.80831 18.8235 5.9366 17.5059 6.43304 16.3056C6.92949 15.1053 7.76619 14.0781 8.84274 13.3579C9.9193 12.6378 11.1855 12.2525 12.4796 12.2525C12.5187 12.2525 12.5633 12.2525 12.6079 12.2525C12.7474 12.2525 12.9147 12.247 13.0709 12.2637C13.2773 12.286 13.5339 12.3363 13.7123 12.5205C13.8853 12.6992 13.9522 12.9448 13.9801 13.1569C14.0024 13.3523 14.0024 13.5533 14.0024 13.7096C14.0024 13.7264 14.0024 13.7431 14.0024 13.7599C14.0024 13.8213 14.0024 13.8827 14.008 13.9609C14.0136 13.9832 14.0136 14.0111 14.0136 14.0334C14.0136 14.1339 14.0191 14.2512 14.0136 14.3628C14.008 14.575 13.9689 14.8541 13.7793 15.0439C13.5952 15.2337 13.3107 15.2728 13.0932 15.284C12.9816 15.2896 12.8645 15.2896 12.7585 15.284C12.7306 15.2784 12.7027 15.2784 12.6748 15.2784C12.6023 15.2728 12.541 15.2728 12.4852 15.2728C11.7879 15.2728 11.1018 15.4794 10.5217 15.8702C9.94161 16.261 9.48979 16.8137 9.22205 17.4613C8.9543 18.1089 8.88737 18.8235 9.02124 19.5102C9.16069 20.1968 9.49537 20.8277 9.99182 21.3246C10.4883 21.8214 11.1186 22.1564 11.8047 22.296C12.4908 22.4355 13.1992 22.363 13.8462 22.095C14.4877 21.827 15.0399 21.3692 15.4304 20.7886C15.8208 20.208 16.0272 19.5213 16.0272 18.8179V6.17846C16.0272 6.11705 16.0216 6.04448 16.0161 5.95515C16.0161 5.94399 16.0161 5.93282 16.0161 5.91607C16.0105 5.81558 16.0049 5.69834 16.0049 5.58669C16.0105 5.37454 16.044 5.0954 16.2336 4.90559C16.4177 4.72135 16.6854 4.67111 16.8974 4.64878C17.0647 4.63203 17.2432 4.63761 17.3883 4.63761C17.4329 4.63761 17.4719 4.63761 17.5054 4.63761C17.5389 4.63761 17.5779 4.63761 17.6225 4.63761C17.7731 4.63761 17.9572 4.63203 18.1357 4.64878C18.3533 4.66553 18.6377 4.72135 18.8218 4.90559C19.0115 5.0954 19.0449 5.37454 19.0505 5.58669C19.0505 5.70392 19.0449 5.81558 19.0394 5.91607C19.0394 5.92724 19.0394 5.94399 19.0394 5.95515C19.0338 6.03889 19.0282 6.11147 19.0282 6.17846C19.0282 7.11637 19.4019 8.02078 20.0657 8.68513C20.7295 9.34949 21.6276 9.72353 22.5647 9.72353C22.5981 9.72353 22.6427 9.72353 22.6706 9.72353C22.8157 9.72353 22.9942 9.71795 23.1559 9.7347C23.3679 9.75703 23.6245 9.80727 23.8086 9.99151ZM23.8086 9.99151L23.6356 10.1646" stroke="white"/>
</svg>
