<svg width="31" height="30" viewBox="0 0 31 30" fill="none" xmlns="http://www.w3.org/2000/svg">
<path d="M15.3858 29.9867C13.2629 29.9867 11.1344 30.0201 9.01153 29.9811C4.37114 29.8921 0.625492 26.1767 0.558804 21.5268C0.497673 17.2217 0.50323 12.9111 0.558804 8.60602C0.614377 3.88381 4.34891 0.140523 9.106 0.0570916C13.3518 -0.0152156 17.6087 -0.0207777 21.8546 0.0515294C26.7117 0.134961 30.3962 3.84487 30.4684 8.69501C30.5296 12.8944 30.5296 17.0938 30.474 21.2931C30.4073 26.3157 26.6561 29.9478 21.6045 29.9811C19.526 29.9923 17.4587 29.9867 15.3858 29.9867Z" fill="#C72931"/>
<path d="M25.956 10.703C25.956 10.703 25.7504 9.22353 25.1113 8.57276C24.2999 7.7162 23.3941 7.71064 22.9773 7.66614C19.9986 7.44922 15.5249 7.44922 15.5249 7.44922H15.5138C15.5138 7.44922 11.0401 7.44922 8.06138 7.66614C7.64458 7.7162 6.73873 7.72176 5.92736 8.57276C5.28826 9.22353 5.08264 10.703 5.08264 10.703C5.08264 10.703 4.87146 12.444 4.87146 14.1793V15.809C4.87146 17.5444 5.08264 19.2853 5.08264 19.2853C5.08264 19.2853 5.28826 20.7649 5.92736 21.4156C6.73873 22.2722 7.80018 22.2444 8.27811 22.3334C9.98422 22.5002 15.5193 22.5503 15.5193 22.5503C15.5193 22.5503 19.9986 22.5447 22.9773 22.3278C23.3941 22.2777 24.2999 22.2722 25.1113 21.4156C25.7504 20.7649 25.956 19.2853 25.956 19.2853C25.956 19.2853 26.1672 17.55 26.1672 15.809V14.1793C26.1672 12.444 25.956 10.703 25.956 10.703Z" stroke="white" stroke-miterlimit="10"/>
<path d="M13.1068 11.4453V18.0586L19.4144 14.7659L13.1068 11.4453Z" fill="white"/>
<path d="M13.1068 11.6367V18.2445L19.4144 14.9517L13.1068 11.6367Z" fill="white"/>
</svg>
