<svg width="31" height="30" viewBox="0 0 31 30" fill="none" xmlns="http://www.w3.org/2000/svg">
<path d="M25.265 0H5.76501C2.86552 0 0.515015 2.3505 0.515015 5.25V24.75C0.515015 27.6495 2.86552 30 5.76501 30H25.265C28.1645 30 30.515 27.6495 30.515 24.75V5.25C30.515 2.3505 28.1645 0 25.265 0Z" fill="#C72931"/>
<path d="M13.3681 10.0229L14.3056 12.5682C14.3283 12.6252 14.3359 12.6871 14.3277 12.7478C14.3195 12.8086 14.2957 12.8662 14.2587 12.9151C14.0575 13.2069 13.8249 13.4757 13.565 13.7167C13.4894 13.776 13.4395 13.8621 13.4255 13.9572C13.4116 14.0523 13.4346 14.1491 13.49 14.2276C14.0665 15.0011 15.5619 16.8761 17.5072 17.5464C17.5821 17.5711 17.663 17.5713 17.7381 17.5468C17.8131 17.5224 17.8784 17.4746 17.9244 17.4104L18.7025 16.3745C18.7556 16.3044 18.8316 16.2552 18.9173 16.2355C19.003 16.2158 19.0929 16.2269 19.1712 16.2667L21.6087 17.4854C21.6935 17.5254 21.7599 17.5959 21.7947 17.6829C21.8295 17.7699 21.8301 17.8668 21.7962 17.9542C21.529 18.7136 20.69 20.5651 18.8947 20.2651C16.547 19.9049 14.4117 18.6997 12.89 16.8761C11.4181 15.0386 8.51186 10.3136 12.979 9.77918C13.0617 9.77096 13.1448 9.79044 13.2152 9.83456C13.2857 9.87868 13.3394 9.94494 13.3681 10.0229Z" fill="white"/>
<path d="M16.265 25.6875C14.3039 25.6902 12.3756 25.1847 10.6681 24.2203L5.04309 25.6641L7.11028 21.0188C5.86071 19.2613 5.19349 17.1564 5.20247 15C5.20247 9.10781 10.1665 4.3125 16.265 4.3125C22.3634 4.3125 27.3275 9.10781 27.3275 15C27.3275 20.8922 22.3634 25.6875 16.265 25.6875ZM10.9634 22.2047L11.3056 22.4156C12.7962 23.3356 14.5134 23.8225 16.265 23.8219C21.3322 23.8219 25.4525 19.8703 25.4525 15.0094C25.4525 10.1484 21.3322 6.1875 16.265 6.1875C11.1978 6.1875 7.07747 10.1391 7.07747 15C7.07956 16.9336 7.74095 18.8086 8.95247 20.3156L9.30403 20.7609L7.61184 23.6297L10.9634 22.2047Z" fill="white"/>
</svg>
