<svg width="30" height="30" viewBox="0 0 30 30" fill="none" xmlns="http://www.w3.org/2000/svg">
<path d="M14.8727 29.9866C12.7455 29.9866 10.6239 30.0202 8.49677 29.981C3.8562 29.8913 0.111281 26.1761 0.0441075 21.5251C-0.0174681 17.2215 -0.0118703 12.9123 0.0441075 8.60868C0.105683 3.88481 3.83941 0.141573 8.59193 0.0575181C12.8407 -0.0153293 17.0894 -0.0209329 21.3381 0.0519144C26.1914 0.135969 29.8803 3.84558 29.9531 8.69274C30.0147 12.8899 30.0147 17.0926 29.9587 21.2953C29.8915 26.3162 26.141 29.953 21.0862 29.981C19.015 29.9922 16.9438 29.9866 14.8727 29.9866Z" fill="#C72931"/>
<path d="M20.4085 9.98655L9.88465 16.3243C9.70552 16.4307 9.62715 16.6437 9.68873 16.8398L11.0602 21.7598C11.105 21.8943 11.3009 21.8831 11.3177 21.7318L11.62 18.336C11.6368 18.0782 11.7543 17.8373 11.9502 17.6748L20.5428 10.1771C20.6324 10.0818 20.5148 9.91371 20.4085 9.98655Z" fill="white"/>
<path d="M25.8664 6.39335L22.0095 23.944C21.8752 24.5323 21.181 24.7733 20.7108 24.3979L16.1878 20.8059C15.8575 20.5369 15.3593 20.5818 15.0738 20.9124L12.7508 23.5965C12.3421 24.0785 11.5584 23.9159 11.3793 23.3276L9.33052 17.0067C9.24095 16.7489 9.02824 16.5416 8.77074 16.4799L4.71794 15.4096C3.97903 15.2135 3.90626 14.188 4.61158 13.8854L24.7692 5.47995C25.3682 5.23339 26.0007 5.76014 25.8664 6.39335Z" stroke="white" stroke-miterlimit="10"/>
<path d="M20.2799 9.8171L9.29708 16.1548C9.10676 16.2613 9.02839 16.4742 9.08996 16.6704L10.523 21.5904C10.5678 21.7248 10.7749 21.7136 10.7917 21.5623L11.1052 18.1665C11.122 17.9088 11.2451 17.6678 11.4522 17.5053L20.4199 10.0076C20.5151 9.90676 20.3919 9.73865 20.2799 9.8171Z" fill="white"/>
</svg>
