<svg width="42" height="42" viewBox="0 0 42 42" fill="none" xmlns="http://www.w3.org/2000/svg">
<rect width="42" height="42" rx="8" fill="#C72931"/>
<path d="M16.9133 13.1973C23.1594 13.1973 28.2254 17.0572 28.2254 21.8181C28.2254 26.5778 23.1594 30.4377 16.9133 30.4377C15.8105 30.4377 14.7462 30.3174 13.7387 30.0939C12.4078 32.5061 9.99332 33.0416 7.83415 32.4993C9.13555 31.3828 10.2588 30.3254 11.1018 29.2135C7.80578 27.709 5.6001 24.9587 5.6001 21.8181C5.6001 17.0572 10.6661 13.1973 16.9133 13.1973Z" fill="white"/>
<path d="M25.0909 8.40039C21.215 8.40039 17.793 9.88673 15.7542 12.1526C20.8145 10.7944 33.1648 16.2338 28.5027 25.3186C29.8347 27.7308 32.0086 28.2436 34.1689 27.7013C32.8675 26.586 31.7431 25.5274 30.9001 24.4154C34.1939 22.9087 36.4007 20.1607 36.4007 17.0189C36.4007 12.2603 31.3381 8.40039 25.0909 8.40039Z" fill="white"/>
</svg>
