<svg width="24" height="22" viewBox="0 0 24 22" fill="none" xmlns="http://www.w3.org/2000/svg">
<path fill-rule="evenodd" clip-rule="evenodd" d="M12.0055 1.55469C9.0875 -0.704921 4.85988 -0.501566 2.17805 2.16574C-0.726017 5.05516 -0.726017 9.74713 2.17805 12.6365L11.298 21.7105C11.686 22.0965 12.314 22.0965 12.702 21.7105L21.8219 12.6365C24.726 9.74713 24.726 5.05516 21.8219 2.16574C19.153 -0.48972 14.9254 -0.677281 12.0055 1.55469ZM12.0015 3.8528C12.4361 3.8449 12.6633 3.59811 12.699 3.56751C15.0355 1.54383 18.2958 1.45005 20.419 3.56257C22.5482 5.68102 22.5482 9.12127 20.419 11.2407L11.9995 19.6167L3.58098 11.2407C1.45179 9.12127 1.45179 5.68102 3.58098 3.56257C5.71116 1.44314 9.16985 1.44413 11.3 3.56356C11.4856 3.74816 11.7386 3.8528 12.0015 3.8528Z" fill="white"/>
</svg>
