<svg width="30" height="31" viewBox="0 0 30 31" fill="none" xmlns="http://www.w3.org/2000/svg">
<g clip-path="url(#clip0_67_114)">
<path fill-rule="evenodd" clip-rule="evenodd" d="M15.0056 4.09645C11.346 1.24814 6.04386 1.50448 2.68038 4.8667C-0.961821 8.50891 -0.961821 14.4233 2.68038 18.0655L14.1184 29.5035C14.605 29.9901 15.3926 29.9901 15.8792 29.5035L27.3172 18.0655C30.9594 14.4233 30.9594 8.50891 27.3172 4.8667C23.9699 1.51941 18.6678 1.28298 15.0056 4.09645ZM15.0007 6.99329C15.5457 6.98334 15.8306 6.67225 15.8754 6.63368C18.8059 4.08277 22.8948 3.96455 25.5577 6.62746C28.2281 9.29783 28.2281 13.6344 25.5577 16.306L14.9982 26.8643L4.43989 16.306C1.76952 13.6344 1.76952 9.29783 4.43989 6.62746C7.11151 3.95584 11.4493 3.95709 14.1209 6.6287C14.3536 6.86139 14.6709 6.99329 15.0007 6.99329Z" fill="white"/>
</g>
<defs>
<clipPath id="clip0_67_114">
<rect width="30" height="30" fill="white" transform="translate(0 0.871094)"/>
</clipPath>
</defs>
</svg>
