<svg width="15" height="10" viewBox="0 0 15 10" fill="none" xmlns="http://www.w3.org/2000/svg">
<path d="M7.50097 9.68785C7.36056 9.68676 7.22194 9.65617 7.09409 9.59809C6.96625 9.54001 6.85203 9.45573 6.75884 9.35069L0.309622 2.28025C0.111348 2.05529 0.00195312 1.76573 0.00195312 1.46586C0.00195312 1.166 0.111348 0.876438 0.309622 0.651481C0.401895 0.545074 0.515957 0.459739 0.644083 0.401255C0.772209 0.342772 0.911407 0.3125 1.05225 0.3125C1.19309 0.3125 1.33229 0.342772 1.46042 0.401255C1.58854 0.459739 1.7026 0.545074 1.79488 0.651481L7.50097 6.90803L13.2071 0.651481C13.2993 0.545074 13.4134 0.459739 13.5415 0.401255C13.6697 0.342772 13.8089 0.3125 13.9497 0.3125C14.0905 0.3125 14.2297 0.342772 14.3579 0.401255C14.486 0.459739 14.6 0.545074 14.6923 0.651481C14.8908 0.876342 15.0003 1.16594 15.0003 1.46586C15.0003 1.76579 14.8908 2.05538 14.6923 2.28025L8.24311 9.35168C8.14982 9.45653 8.03557 9.54063 7.90773 9.59854C7.77989 9.65645 7.64131 9.68688 7.50097 9.68785Z" fill="white"/>
</svg>
